<?xml version="1.0" encoding="UTF-8"?><svg id="a" xmlns="http://www.w3.org/2000/svg" viewBox="0 0 1135.82 620.98"><defs><style>.b{fill:#000604;}.c{fill:#c71919;}</style></defs><g><path class="b" d="M720.58,282.45c-4.11-3.86-9.07-5.78-14.9-5.78h-14.06s-5.63,0-5.63,0c-3.11,0-5.63,2.52-5.63,5.63v56.29c0,3.11,2.52,5.63,5.63,5.63s5.63-2.52,5.63-5.63v-22.53h14.81c5.64-.19,10.44-2.18,14.39-5.97,3.98-3.82,5.97-8.4,5.97-13.73s-2.07-10.06-6.21-13.92Zm-7.76,19.93c-1.88,1.66-4.15,2.52-6.82,2.59h-14.39v-17.21h14.06c2.76,0,5.11,.85,7.05,2.54,1.94,1.69,2.91,3.72,2.91,6.07s-.94,4.32-2.82,6.02Z"/><path class="b" d="M790.88,335.12l-14.19-20.13c3.02-.97,5.74-2.6,8.14-4.91,3.98-3.82,5.97-8.4,5.97-13.73s-2.07-10.06-6.21-13.92c-4.11-3.86-9.07-5.78-14.9-5.78h-18.01s-5.63,0-5.63,0c-3.11,0-5.63,2.52-5.63,5.63v56.29c0,3.11,2.52,5.63,5.63,5.63s5.63-2.52,5.63-5.63v-22.53h11.97l18.02,25.56c1.9,2.69,5.49,3.41,8.04,1.62,2.54-1.79,3.07-5.43,1.17-8.11Zm-39.2-47.36h18.01c2.76,0,5.11,.85,7.05,2.54,1.94,1.69,2.91,3.72,2.91,6.07s-.94,4.32-2.82,6.02c-1.88,1.66-4.15,2.52-6.82,2.59h-18.33v-17.21Z"/><path class="b" d="M838.18,344.22c-9.31,0-17.25-3.31-23.84-9.92-6.61-6.58-9.92-14.53-9.92-23.84s3.31-17.27,9.92-23.88c6.58-6.58,14.53-9.87,23.84-9.87s17.27,3.29,23.88,9.87c6.58,6.61,9.87,14.57,9.87,23.88s-3.29,17.25-9.87,23.84c-6.61,6.61-14.57,9.92-23.88,9.92Zm0-56.42c-6.24,0-11.56,2.21-15.99,6.63-4.45,4.45-6.68,9.8-6.68,16.03s2.22,11.56,6.68,15.98c4.42,4.45,9.75,6.68,15.99,6.68s11.58-2.22,16.03-6.68c4.42-4.42,6.63-9.75,6.63-15.98s-2.21-11.58-6.63-16.03c-4.45-4.42-9.8-6.63-16.03-6.63Z"/></g><path class="b" d="M890.9,380.58h-233.81c-9.7,0-17.58-7.89-17.58-17.58v-104.67c0-9.7,7.89-17.58,17.58-17.58h233.81c9.7,0,17.58,7.89,17.58,17.58v104.67c0,9.7-7.89,17.58-17.58,17.58Zm-233.81-132.01c-5.38,0-9.76,4.38-9.76,9.76v104.67c0,5.38,4.38,9.76,9.76,9.76h233.81c5.38,0,9.76-4.38,9.76-9.76v-104.67c0-5.38-4.38-9.76-9.76-9.76h-233.81Z"/><g><path class="c" d="M606.48,287.27c0-10.2-19.15-11.31-27.39-11.31-18.2,0-37.49,5.44-52.91,14.93-15.45,9.51-24.31,21.3-24.31,32.37,0,4.68,2.45,19.96,33.95,19.96,20.17,0,38.79-5.49,60.36-17.81,.52-.3,.84-.84,.86-1.44,.01-.6-.29-1.16-.8-1.48l-3.67-2.3c-.5-.32-1.13-.35-1.66-.08-16.78,8.35-31.45,12.41-44.87,12.41-12.03,0-19.8-3.42-19.8-8.72,0-3.27,.5-6.09,1.55-8.78,19.86-1.02,78.68-5.92,78.68-27.76m-33.42-3.58c5.49,0,9.04,1.62,9.04,4.12,0,11.7-25.22,18.89-51.11,20.23,6-8.77,23.92-24.35,42.07-24.35"/><path class="c" d="M496.58,322.51l-3.68-2.3c-.5-.31-1.13-.35-1.66-.08-16.77,8.35-31.45,12.41-44.87,12.41-12.03,0-19.8-3.42-19.8-8.72,0-3.29,.49-6.1,1.55-8.78,19.86-1.02,78.69-5.92,78.69-27.76,0-10.2-19.16-11.31-27.4-11.31-18.2,0-37.49,5.44-52.91,14.93-15.45,9.51-24.31,21.3-24.31,32.37,0,4.68,2.45,19.96,33.95,19.96,20.17,0,38.79-5.49,60.37-17.81,.52-.3,.84-.84,.86-1.44,.01-.6-.29-1.16-.8-1.47m-23.2-38.82c5.5,0,9.06,1.62,9.06,4.12,0,11.7-25.22,18.89-51.11,20.23,6-8.77,23.92-24.35,42.06-24.35"/><path class="c" d="M408.2,295.6c8.98,0,12.71-7.62,12.71-11.71,0-2.88-1.7-6.31-9.82-6.31-10.33,0-24.73,8.39-42.84,24.97l5.53-10.29c2.54-4.81,2.83-6.78,2.83-7.83,0-3.12-2.16-6.85-12.46-6.85-13.48,0-33.9,13.35-40.63,18.49-.43,.33-.68,.85-.67,1.4,.02,.55,.3,1.05,.75,1.36l3.41,2.29c.56,.38,1.3,.39,1.87,.02,3.2-2.06,14.2-8.79,21.1-8.79,2.51,0,3.29,1.33,3.29,1.82,0,1.44-1.51,4.8-2.94,7.16l-20.68,37.29c-.31,.49-.76,1.2-.76,2.1,0,3.89,9.98,4.13,10.08,4.13,7.81,0,10.06-.4,10.93-1.96l4.7-8.61c9.2-14.67,27.12-39.22,43.9-39.22,1.51,0,3.06,.13,4.71,.27,1.64,.14,3.35,.28,4.99,.28"/><path class="c" d="M322.8,285.61c-.31-.52-.86-.84-1.47-.84h-26.13l8-16.47c3.38-7.24,7.59-16.25,22.85-16.25,2.95,0,5.84,.73,8.63,1.43,2.73,.69,5.3,1.33,7.88,1.33,5.61,0,9.05-5.38,9.05-8.32,0-3.88-4.54-6.11-12.45-6.11-10.5,0-21.75,3.5-28.76,6.76-24.83,11.35-31.91,23.55-39.63,37.61h-22.07c-.64,0-1.22,.36-1.51,.93l-2.88,5.64c-.27,.53-.24,1.16,.06,1.66,.31,.5,.86,.81,1.45,.81h20.91l-39.24,83.44c-.3,.64-.18,1.39,.31,1.9l.79,.82c.32,.34,.77,.52,1.23,.52,.09,0,.17,0,.26-.02l16-2.48c.53-.08,1-.42,1.25-.89l43.31-83.29h27.54c.62,0,1.18-.33,1.48-.87l3.15-5.64c.29-.53,.29-1.17-.02-1.69"/></g></svg>