<?xml version="1.0" encoding="UTF-8" standalone="no"?>
<!-- Created with Inkscape (http://www.inkscape.org/) -->

<svg
   version="1.1"
   id="svg32"
   width="841.00006mm"
   height="593.99994mm"
   viewBox="0 0 3178.5829 2245.0392"
   sodipodi:docname="POW-FR.svg"
   inkscape:version="1.2 (dc2aeda, 2022-05-15)"
   inkscape:export-filename="POW-FR.svg"
   inkscape:export-xdpi="96"
   inkscape:export-ydpi="96"
   xmlns:inkscape="http://www.inkscape.org/namespaces/inkscape"
   xmlns:sodipodi="http://sodipodi.sourceforge.net/DTD/sodipodi-0.dtd"
   xmlns="http://www.w3.org/2000/svg"
   xmlns:svg="http://www.w3.org/2000/svg">
  <defs
     id="defs36" />
  <sodipodi:namedview
     id="namedview34"
     pagecolor="#ffffff"
     bordercolor="#000000"
     borderopacity="0.25"
     inkscape:showpageshadow="2"
     inkscape:pageopacity="0.0"
     inkscape:pagecheckerboard="0"
     inkscape:deskcolor="#d1d1d1"
     showgrid="false"
     inkscape:zoom="0.15196394"
     inkscape:cx="1464.1631"
     inkscape:cy="1536.5487"
     inkscape:window-width="1920"
     inkscape:window-height="1027"
     inkscape:window-x="1440"
     inkscape:window-y="25"
     inkscape:window-maximized="1"
     inkscape:current-layer="g38"
     inkscape:document-units="mm" />
  <g
     inkscape:groupmode="layer"
     inkscape:label="Image"
     id="g38">
    <path
       id="rect481"
       style="display:inline;fill:#f2e235;stroke:#000000;stroke-width:0"
       d="M 378.94336,1256.3438 V 1703.043 H 3008.0938 v -446.6992 h -337.5977 c 0.1114,0.094 0.2314,0.1773 0.3398,0.2753 7.7813,7.0296 7.9141,17.7385 3.2207,26.4473 -9.1117,12.9297 -20.1002,19.3038 -35.6621,22.5117 -2.174,0.2684 -4.3384,0.4957 -6.4961,0.6914 -1.4632,0.9672 -3.1855,1.8685 -5.5488,2.7832 -9.2654,3.5864 -18.6343,1.6494 -26.082,-3.9882 -7.3431,-1.5427 -14.5163,-4.1686 -21.4766,-8.2833 -6.0027,-5.1095 -8.818,-6.3055 -12.0801,-13.6953 -3.5798,-8.1093 -2.7018,-17.1568 1.6641,-24.7519 0.4049,-0.7044 0.8881,-1.3555 1.3945,-1.9902 h -876.25 z m 2275.71684,13.4804 c -0.1606,0.2223 -0.3249,0.4423 -0.4922,0.6602 -0.07,0.2808 -0.1341,0.5755 -0.2012,0.875 0.253,-0.3861 0.4981,-0.7811 0.7266,-1.1914 -0.01,-0.1749 -0.022,-0.2334 -0.033,-0.3438 z m -2.3028,2.7949 c -1.2917,1.4023 -2.7015,2.7031 -4.1758,3.9082 -0.021,0.2348 -0.048,0.4687 -0.072,0.7032 1.8204,-1.251 3.4722,-2.725 4.8554,-4.4785 -0.2024,-0.045 -0.4047,-0.09 -0.6074,-0.1329 z" />
    <g
       id="g200"
       transform="matrix(0.54854919,0,0,0.54854919,272.61892,700.9789)">
      <path
         style="fill:#224a63"
         d="m 3775.5,1156.5111 c -0.55,-0.1849 -2.2292,-0.607 -3.7317,-0.9381 -3.8533,-0.8491 -9.7545,-6.3344 -11.9033,-11.0644 -1.7544,-3.8617 -1.8211,-24.1576 -1.8211,-554.0086 0,-532.881585 0.058,-550.126699 1.8489,-554.070741 2.4792,-5.45849 8.3131,-10.093222 14.3285,-11.383301 7.066,-1.51538 1002.7388,-1.462319 1009.8083,0.05381 6.1222,1.312969 11.4997,5.655932 14.1054,11.391651 1.7543,3.861529 1.8219,24.176357 1.843,553.790701 0.02,494.81108 -0.1333,550.15388 -1.531,553.49998 -1.8269,4.3733 -5.7491,8.7333 -9.947,11.0572 -2.7834,1.5408 -39.4233,1.6732 -507.5,1.8343 -277.475,0.095 -504.95,0.022 -505.5,-0.1625 z m 531.6281,-62.3094 c 4.4068,-2.3021 5.8511,-3.7652 8.1457,-8.2519 l 2.7891,-5.4537 -2.3771,-79.9981 c -1.3074,-43.99888 -2.2606,-80.14644 -2.1182,-80.32787 0.1423,-0.18143 22.6942,17.62776 50.1152,39.57598 27.421,21.94822 51.0905,40.71449 52.5987,41.70269 4.2426,2.7798 12.8429,1.7643 16.7487,-1.97774 2.5135,-2.40808 19.9787,-29.64512 23.9607,-37.36687 1.5955,-3.09377 0.8452,-10.89857 -1.3732,-14.28416 -1.0531,-1.60722 -29.0001,-19.54973 -72.1848,-46.34399 -38.7566,-24.04678 -70.7965,-44.2287 -71.1997,-44.84873 -0.6842,-1.05196 -7.4407,-219.75312 -6.8086,-220.38527 0.374,-0.37394 185.7168,113.60815 187.1882,115.11691 0.7536,0.77278 1.8109,24.37857 3.276,73.14105 2.8258,94.05582 2.8699,94.84623 5.5103,98.76419 4.2412,6.29354 6.8211,6.99374 25.1005,6.81225 9.0228,-0.0896 19.8466,-0.54882 24.0529,-1.02054 6.7304,-0.75479 8.0579,-1.25517 11.0669,-4.17167 6.2412,-6.04915 6.3696,-3.91978 -4.5197,-74.94991 -5.433,-35.43888 -9.7582,-64.56658 -9.6117,-64.72823 0.1466,-0.16165 30.7625,18.45528 68.0354,41.37095 37.2729,22.91568 69.3405,42.09882 71.2614,42.6292 6.027,1.66415 13.29,-0.55374 18.3354,-5.59912 1.4182,-1.41823 7.4637,-11.02251 13.4345,-21.34286 10.5015,-18.15165 10.8574,-18.96257 10.9006,-24.83834 0.037,-5.05591 -0.4607,-6.89229 -2.9704,-10.95522 -3.0031,-4.86175 -3.296,-5.03219 -73.7241,-42.90181 -38.89,-20.91138 -70.3832,-38.33651 -69.9849,-38.72253 0.3983,-0.38602 27.663,-11.24686 60.5884,-24.1352 41.7453,-16.34084 60.7158,-24.23713 62.678,-26.08905 3.4511,-3.25731 5.3595,-8.68779 4.5465,-12.93729 -0.3351,-1.75165 -5.241,-11.73296 -10.902,-22.18068 C 4688.1942,618.29395 4686.0988,616 4678.2162,616 c -3.9996,0 -12.4462,4.27268 -77.5928,39.25 -40.2075,21.5875 -73.8294,39.25 -74.7152,39.25 -1.3014,0 -195.1711,-103.7196 -194.5804,-104.0998 0.095,-0.0609 43.9173,-23.61907 97.3836,-52.3514 l 97.2114,-52.2406 12.2886,6.52135 c 6.7587,3.58675 39.944,21.4049 73.7451,39.5959 55.4968,29.86718 61.907,33.07455 66.1021,33.07455 8.0626,0 10.0815,-2.19401 21.6282,-23.50414 5.661,-10.44772 10.5669,-20.42903 10.902,-22.18068 0.8495,-4.44013 -1.1341,-9.70878 -4.9,-13.0152 -2.206,-1.93678 -21.2239,-9.85738 -61.689,-25.69228 -32.1749,-12.59077 -59.3313,-23.31763 -60.3475,-23.83747 -1.4948,-0.76463 11.3988,-8.06387 67.5,-38.21265 43.4653,-23.35827 70.6799,-38.56054 72.9172,-40.73203 4.2642,-4.13886 6.4869,-10.94439 5.5296,-16.93089 -0.7986,-4.9944 -20.1588,-38.84113 -25.031,-43.76073 -4.2139,-4.25498 -11.5572,-6.37315 -17.4805,-5.04227 -2.6074,0.58583 -28.904,16.17956 -71.6803,42.50599 -37.1593,22.86939 -67.7017,41.42808 -67.8721,41.24153 -0.1704,-0.18655 4.137,-29.36418 9.572,-64.83918 5.4349,-35.475 9.6211,-65.74828 9.3026,-67.27395 -0.3186,-1.52568 -1.7197,-4.12934 -3.1136,-5.78592 -4.7191,-5.60832 -6.3659,-5.95782 -31.0624,-6.59239 -22.7297,-0.58403 -22.7344,-0.58371 -26.1468,1.78406 -7.4064,5.13907 -6.9061,0.39001 -9.8006,93.03529 -1.4319,45.8331 -2.6447,83.3783 -2.695,83.43377 -0.7685,0.84772 -187.8926,115.43129 -188.1265,115.1974 -0.1812,-0.18125 1.1025,-49.69452 2.8528,-110.02949 2.7089,-93.38233 3.4054,-109.90754 4.6823,-111.09559 0.825,-0.76761 32.8689,-20.83743 71.2087,-44.5996 54.2557,-33.62646 70.1613,-43.93612 71.75,-46.50679 2.2628,-3.6612 2.7072,-10.40726 0.9146,-13.88253 -2.6701,-5.17654 -20.3583,-33.39341 -22.2721,-35.52927 -3.4785,-3.88218 -7.4476,-5.4242 -12.67,-4.9224 -5.1951,0.49918 -2.5252,-1.51594 -78.2642,59.07029 -16.4082,13.12544 -29.9527,23.71429 -30.0989,23.53078 -0.1462,-0.18351 0.8139,-35.88366 2.1335,-79.33366 1.7923,-59.01219 2.1221,-79.95298 1.3037,-82.76658 -1.4361,-4.937346 -6.4895,-10.5937 -11.4967,-12.868438 -3.4971,-1.588681 -6.8797,-1.821058 -26.5086,-1.821058 -19.6289,0 -23.0115,0.232377 -26.5086,1.821058 -4.9787,2.261803 -10.0645,7.929216 -11.3752,12.676288 -0.6841,2.47784 -0.2633,28.21618 1.3536,82.77733 1.2905,43.54977 2.2154,79.31624 2.0553,79.48104 -0.1601,0.1648 -22.9562,-17.8071 -50.6581,-39.93755 -27.7018,-22.13046 -51.492,-40.82502 -52.867,-41.54348 -3.2821,-1.71496 -9.4171,-1.67356 -12.7997,0.0864 -4.1762,2.17289 -6.1426,4.80242 -17.6445,23.59501 -10.4589,17.08861 -10.7014,17.6197 -10.3141,22.59163 0.2369,3.04106 1.2392,6.26294 2.4889,8 1.3301,1.84884 27.9901,18.92929 73.1809,46.88532 L 4247,324.4539 l 0.012,8.52305 c 0.01,4.68768 1.3386,54.17837 2.9604,109.97931 1.6217,55.80094 2.7877,101.6172 2.591,101.81391 -0.2524,0.25239 -187.332,-114.25909 -188.1543,-115.16931 -0.05,-0.0555 -1.2706,-37.83009 -2.7121,-83.94359 -2.9111,-93.12222 -2.308,-87.39966 -9.7509,-92.52207 -3.4458,-2.37151 -3.4467,-2.37158 -26.1797,-1.78746 -24.6615,0.63367 -26.3478,0.98944 -31.0224,6.54487 -1.3719,1.63045 -2.7596,4.45911 -3.0837,6.28592 -0.3584,2.02037 3.2671,28.39181 9.2552,67.32147 5.4144,35.2 9.7083,64.15263 9.542,64.33918 -0.1663,0.18655 -30.7053,-18.37214 -67.8646,-41.24153 -42.7763,-26.32643 -69.0729,-41.92016 -71.6803,-42.50599 -5.9248,-1.33122 -13.2676,0.78728 -17.4767,5.04227 -4.3033,4.35035 -24.1857,39.01658 -25.0647,43.70207 -0.8065,4.29891 0.9223,11.36285 3.7543,15.33998 2.5463,3.57587 -1.5969,1.23985 77.7262,43.82402 36.37,19.525 66.1238,35.725 66.1197,36 0,0.275 -27.1006,11.075 -60.2143,24 -41.5739,16.22716 -61.2015,24.36655 -63.4208,26.29998 -3.7857,3.29807 -5.7771,8.56081 -4.9249,13.0152 0.3351,1.75165 5.241,11.73296 10.902,22.18068 12.0537,22.2458 13.737,23.96881 22.6868,23.22251 4.964,-0.41393 12.5655,-4.2723 78,-39.59106 41.6447,-22.47806 73.1384,-38.89649 74,-38.57804 1.3141,0.48569 173.3394,92.7357 188.1688,100.90712 l 5.6688,3.12367 -96.542,51.95997 c -53.098,28.57798 -97.0656,52.08699 -97.7055,52.24223 -0.64,0.15524 -34.2221,-17.50411 -74.6269,-39.24301 -66.1988,-35.61679 -73.9183,-39.52595 -78.0653,-39.53225 -7.9904,-0.0121 -10.0226,2.20293 -21.5539,23.493 -5.6599,10.45 -10.5724,20.43317 -10.9165,22.18482 -0.3441,1.75165 -0.1226,4.70909 0.4923,6.57209 2.3993,7.27015 4.0245,8.06167 67.0802,32.67077 32.725,12.77176 59.826,23.53631 60.2244,23.92122 0.3984,0.38491 -30.2016,17.29829 -68,37.5853 -37.7984,20.28701 -69.9232,37.71662 -71.3884,38.73246 -3.3168,2.29964 -7.836,11.16989 -7.836,15.38046 0,1.73494 0.5045,4.60167 1.1211,6.37051 2.2524,6.46119 20.9868,37.65497 24.7822,41.26353 4.4476,4.22876 10.5902,6.24915 16.1457,5.31056 2.5884,-0.4373 25.8555,-14.20456 72.0128,-42.61016 37.5039,-23.08026 68.3061,-41.83305 68.4492,-41.67284 0.1432,0.1602 -4.1959,29.31628 -9.6424,64.79128 -10.9189,71.1185 -10.779,68.78682 -4.495,74.8775 3.0169,2.92412 4.3396,3.42317 11.0739,4.1784 4.2063,0.47172 15.0301,0.93096 24.0529,1.02054 18.2765,0.18146 20.8596,-0.51915 25.0969,-6.8069 2.5705,-3.8143 2.5622,-3.6636 5.5159,-100.26954 1.461,-47.78614 2.5149,-70.86856 3.2711,-71.64394 1.5504,-1.5897 186.8397,-115.46544 187.2341,-115.07101 0.1757,0.17576 -1.0121,45.97103 -2.6396,101.76726 -1.6275,55.79623 -2.9636,105.32046 -2.969,110.05384 l -0.01,8.60616 -69.25,42.89384 c -38.0875,23.59162 -70.9956,44.49829 -73.1291,46.45927 -3.2901,3.02417 -3.9525,4.33035 -4.3632,8.60419 -0.5643,5.87256 -0.9747,4.9712 11.5346,25.33039 10.3794,16.89279 12.3465,19.48182 16.408,21.595 3.2415,1.6866 10.1241,1.837 13.0246,0.2846 1.1515,-0.6162 24.8126,-19.30047 52.5804,-41.52059 27.7677,-22.22012 50.5811,-40.27844 50.6963,-40.12961 0.1153,0.14883 -0.8277,35.8206 -2.0955,79.2706 -1.5884,54.4391 -1.9967,80.1699 -1.3135,82.7631 1.2834,4.8709 6.3294,10.5689 11.3988,12.8719 3.494,1.5873 6.9145,1.8239 26.6444,1.843 l 22.6358,0.022 z"
         id="SNOWFLAKE_ICON" />
      <path
         style="fill:#224a63"
         d="m 1420.5,1172.3035 c -13.5567,-0.7191 -41.0821,-3.5304 -57.5,-5.8727 C 1191.1478,1141.9129 1042.184,1050.069 950.33279,912 906.88917,846.69634 877.29128,773.57078 863.51297,697.5 c -1.49428,-8.25 -2.83147,-15.12297 -2.97153,-15.27327 -0.14005,-0.1503 -3.2499,3.0734 -6.91077,7.16377 -8.16136,9.11889 -27.87543,26.99872 -41.21817,37.38315 C 737.5432,785.04314 637.51049,818.99552 517.17045,826.98257 508.51466,827.55706 460.73467,828 407.42045,828 H 313 V 989.5 1151 H 157 1 V 587 23 l 239.25,0.01892 c 226.50352,0.01791 277.50627,0.512341 306.75,2.973689 95.0976,8.00405 178.53182,34.636181 242.94892,77.549081 34.61214,23.05766 65.60701,52.31502 89.47403,84.45831 20.17396,27.16961 38.72464,62.86688 49.49823,95.25 1.78406,5.3625 3.54414,9.74448 3.91128,9.73774 0.36715,-0.007 2.56436,-3.28736 4.8827,-7.29025 C 948.79129,266.57323 969.87065,237.22001 989.56218,213.5 1003.3993,196.8321 1042.6989,157.5558 1059.5,143.60361 1151.2829,67.384196 1258.5421,21.211506 1379,6.0659392 c 29.8104,-3.748164 43.9895,-4.5350292 82,-4.5505887 38.2789,-0.015669 54.5365,0.8687677 84,4.5697292 177.6743,22.3179473 330.2989,114.4704403 425.3207,256.8024503 5.2819,7.91169 9.7839,14.88609 10.0045,15.49868 0.2205,0.61258 0.6196,0.88879 0.8868,0.61379 0.2672,-0.275 -18.5601,-57.875 -41.8386,-128 -23.2785,-70.125 -42.3355,-127.6125 -42.3489,-127.75 -0.014,-0.1375 74.1299,-0.25 164.763,-0.25 h 164.7876 l 97.3571,323.25 c 53.5464,177.7875 97.8983,324.6 98.5597,326.25 1.1208,2.79603 5.9767,-11.38001 71.4204,-208.5 38.6199,-116.325 87.6171,-263.8125 108.8829,-327.75 L 2641.4602,20 h 134.2699 C 2849.5785,20 2910,20.213482 2910,20.474405 2910,20.945553 3125.5248,671.12904 3126.6327,674 c 0.4671,1.21052 0.7516,1.11403 1.4739,-0.5 0.4923,-1.1 44.8103,-147.8 98.4844,-326 53.6741,-178.2 97.7,-324.113864 97.8355,-324.25303 0.1354,-0.139167 72.8994,-0.139167 161.6977,0 L 3647.5758,23.5 3500.3929,467 c -80.9505,243.925 -165.7707,499.4141 -188.4892,567.7536 l -41.3065,124.2535 -135.9642,-0.2535 -135.9641,-0.2536 -104.6185,-299 C 2836.5103,695.05 2785.4196,549.04146 2780.5155,535.03659 l -8.9165,-25.46341 -1.6478,3.96341 c -0.9063,2.17987 -51.7391,148.30251 -112.9617,324.71697 l -111.3138,320.75354 -135.9998,-0.2535 -135.9998,-0.2536 -103.8449,-313 c -57.1147,-172.15 -104.046,-313.45 -104.2917,-314 -0.2458,-0.55 -0.1302,4.85 0.2568,12 1.1431,21.11854 0.7509,78.76477 -0.6396,94 -11.2057,122.78097 -57.9932,234.71059 -136.3202,326.11814 C 1822.9616,1087.1742 1670.6937,1161.1478 1500,1171.9523 c -14.8553,0.9403 -64.2797,1.1587 -79.5,0.3512 z m 63.5501,-281.34582 c 50.9328,-3.94713 95.0809,-18.81475 134.9499,-45.44673 17.2659,-11.53343 27.4061,-19.85324 42.0237,-34.47967 47.3715,-47.39998 76.3115,-108.76466 85.6114,-181.53128 2.4407,-19.097 2.4468,-62.40717 0.011,-81 -4.1168,-31.42883 -9.8589,-54.27118 -20.3617,-81 C 1690.3158,375.96153 1615.2015,309.91089 1524,289.62379 c -61.4157,-13.66146 -126.213,-7.74829 -180.8922,16.50756 -31.2764,13.87433 -56.7806,31.45973 -81.6788,56.31843 -23.5121,23.47487 -39.7503,46.24254 -54.953,77.05022 -21.0758,42.70914 -31.3999,84.79007 -33.1208,135 -3.482,101.59205 38.536,197.04726 113.1448,257.03926 20.403,16.40582 52.6008,34.47261 77.4936,43.48316 37.0388,13.4071 79.6675,19.06527 120.0565,15.93526 z M 491,582.5309 c 80.78275,-8.66285 132.19775,-48.83711 146.64389,-114.58348 1.53972,-7.00749 1.85063,-12.70887 1.82394,-33.44742 -0.035,-27.16544 -1.11211,-35.23727 -7.08651,-53.10406 -14.99457,-44.8421 -52.43133,-75.91509 -106.88132,-88.71286 -26.18169,-6.15367 -23.96937,-6.0374 -122.25,-6.4252 L 313,285.90177 V 434.95088 584 l 82.25,-0.0107 c 64.84748,-0.008 85.10634,-0.31701 95.75,-1.45839 z"
         id="POW" />
      <path
         style="fill:#224a63;stroke-width:0.98189"
         d="m 4231.6375,1521.6317 v -205.4329 h 21.1107 21.1106 v 205.4329 22.0926 h -21.1106 -21.1107 z"
         id="pipe"
         sodipodi:nodetypes="ccccccccc" />
      <g
         id="PROTECT_OUR_WINTERS"
         transform="matrix(0.98188992,0,0,0.98188992,0.01811008,23.758654)">
        <path
           style="fill:#224a63"
           d="m 3799,1431.944 v -116.0558 l 61.75,0.3944 c 65.8223,0.4204 65.4787,0.3964 80.5037,5.6139 16.5038,5.731 31.7399,17.879 39.0098,31.1032 6.6193,12.0407 8.244,19.3877 8.1818,37 -0.05,14.0479 -0.3049,16.2495 -2.7245,23.5 -3.8263,11.4661 -9.0731,19.6692 -17.8914,27.9722 -7.9027,7.4408 -18.3989,13.6784 -28.5794,16.9839 -2.8875,0.9376 -5.25,1.8769 -5.25,2.0875 0,0.2106 12.9485,18.512 28.7744,40.6697 15.826,22.1577 29.8066,41.7492 31.0681,43.5367 l 2.2937,3.25 h -23.8718 -23.8719 l -28.4462,-40.4666 -28.4463,-40.4666 -25.75,-0.033 -25.75,-0.033 v 40.5 40.5 h -20.5 -20.5 v -116.0557 z m 117.5399,-2.4747 c 13.5748,-3.4858 23.4211,-10.8844 28.279,-21.2493 2.4097,-5.1413 2.6773,-6.8337 2.6435,-16.7203 -0.04,-11.7285 -1.002,-15.303 -6.1074,-22.6962 -3.2339,-4.6831 -11.1256,-10.1199 -18.855,-12.9899 -5.7448,-2.1332 -7.6266,-2.2431 -44.25,-2.5851 l -38.25,-0.3573 v 39.0643 39.0642 h 35.2899 c 28.418,0 36.4505,-0.298 41.25,-1.5304 z"
           id="path346" />
        <path
           style="fill:#224a63"
           d="m 3576,1432 v -116 h 86.5 86.5 v 18 18 h -66 -66 v 30.5 30.5 h 58.5 58.5 v 18 18 h -58.5 -58.5 v 31.5 31.5 h 66.5 66.5 v 18 18 h -87 -87 z"
           id="path344" />
        <path
           style="fill:#224a63"
           d="M 3418,1450.5 V 1353 h -37 -37 v -18.5 -18.5 h 94.5 94.5 v 18.5 18.5 h -37 -37 v 97.5 97.5 h -20.5 -20.5 z"
           id="path342" />
        <path
           style="fill:#224a63"
           d="m 3098,1432 v -116 h 18.8535 18.8535 l 61.8965,79.9704 c 34.0431,43.9838 62.234,79.9838 62.6465,80 0.4125,0.016 0.75,-35.9704 0.75,-79.9704 v -80 h 19.5 19.5 v 116 116 h -16.8798 -16.8799 l -63.8701,-82.4293 -63.8702,-82.4292 -0.2558,82.4292 -0.2558,82.4293 H 3117.9942 3098 Z"
           id="path340" />
        <path
           style="fill:#224a63"
           d="m 2995,1432 v -116 h 20 20 v 116 116 h -20 -20 z"
           id="path338" />
        <path
           style="fill:#224a63"
           d="m 2281,1432 v -116 h 57.25 c 46.3307,0 59.0304,0.2928 66.5848,1.518 38.1115,6.1809 61.189,28.4019 65.2491,62.8274 1.2918,10.9533 0.032,24.3666 -3.1971,34.0449 -6.9003,20.6808 -23.3979,36.3744 -46.6325,44.3598 l -5.08,1.7459 29.9712,42 c 16.4841,23.1 30.4107,42.7875 30.948,43.75 0.9186,1.6456 -0.4419,1.7469 -22.8083,1.6982 l -23.7852,-0.052 -28.3871,-40.4483 -28.387,-40.4482 H 2346.8629 2321 v 40.5 40.5 h -20 -20 v -116 z m 116.9069,-2.5398 c 13.8489,-3.2644 24.9179,-12.0977 29.1451,-23.2586 2.9905,-7.8955 2.9924,-21.3995 0,-29.3487 -2.7698,-7.368 -8.4774,-13.7328 -15.8283,-17.6508 -10.6804,-5.6925 -14.8928,-6.171 -54.4779,-6.1873 L 2321,1353 v 39 39 l 35.25,-0.015 c 27.904,-0.012 36.5852,-0.3295 41.6569,-1.525 z"
           id="path336" />
        <path
           style="fill:#224a63"
           d="M 1488,1450.5 V 1353 h -37 -37 v -18.5 -18.5 h 94.5 94.5 v 18.5 18.5 h -37 -37 v 97.5 97.5 h -20.5 -20.5 z"
           id="path334" />
        <path
           style="fill:#224a63"
           d="m 962,1432 v -116 h 86 86 v 18 18 h -65.5 -65.5 v 30.5 30.5 h 58 58 v 18 18 h -58 -58 v 31.5 31.5 h 66.5 66.5 v 18 18 h -87 -87 z"
           id="path332" />
        <path
           style="fill:#224a63"
           d="M 804,1450.5 V 1353 h -37 -37 v -18.5 -18.5 h 94 94 v 18.5 18.5 H 881.5 845 v 97.5 97.5 H 824.5 804 Z"
           id="path330" />
        <path
           style="fill:#224a63"
           d="m 223,1431.9443 v -116.0558 l 61.75,0.3435 61.75,0.3435 9.51148,2.5941 c 24.17412,6.5933 39.55407,17.7908 48.73847,35.4844 5.34597,10.299 7.18958,17.4823 7.92173,30.8656 1.84939,33.8061 -15.89377,60.7347 -47.60128,72.2439 -3.598,1.306 -6.7096,2.5424 -6.91465,2.7474 -0.20505,0.2051 13.60482,19.974 30.68859,43.931 L 419.90574,1548 H 396.0433 372.18086 l -28.37461,-40.25 -28.37462,-40.25 -25.71581,-0.2669 L 264,1466.9662 V 1507.4831 1548 H 243.5 223 Z m 117.5399,-2.476 c 9.24435,-2.3756 16.11587,-6.3292 21.94646,-12.6269 6.91953,-7.4739 9.00332,-13.3391 9.00332,-25.3414 0,-11.4397 -2.10348,-17.7419 -8.17593,-24.4959 -5.83292,-6.4876 -11.08151,-9.515 -20.80988,-12.0031 -7.10042,-1.816 -11.09128,-2.001 -43.16383,-2.001 L 264,1353 v 39 39 h 35.2899 c 28.43219,0 36.4481,-0.2976 41.25,-1.5317 z"
           id="path328" />
        <path
           style="fill:#224a63"
           d="m 1,1432 v -116 h 51.25 c 54.48238,0 61.74755,0.4885 75.75,5.0483 21.26448,6.9247 36.23931,19.4004 44.94928,37.4477 5.87292,12.1689 7.45011,19.7058 7.42876,35.5 -0.0219,16.1711 -1.44546,22.561 -7.99886,35.9036 -9.6847,19.7178 -27.50818,32.8281 -54.65172,40.1999 -7.49956,2.0368 -11.2355,2.2858 -42.22746,2.8155 l -34,0.581 -0.262171,37.25 -0.262171,37.25 H 20.987829 L 1,1548 Z m 103.16308,3.5531 c 24.28727,-5.1477 38.61224,-24.7313 35.01091,-47.8634 -2.07865,-13.3516 -8.39899,-22.333 -20.10776,-28.5737 -9.98469,-5.3218 -16.04713,-6.0792 -48.81623,-6.0986 L 41,1353 v 42 42 l 28.25,-0.017 c 20.460512,-0.013 30.087239,-0.4067 34.91308,-1.4295 z"
           id="path326" />
        <path
           style="fill:#224a63"
           d="m 2644.6368,1435.2724 c -21.8395,-63.1248 -39.9719,-115.7938 -40.2943,-117.0422 l -0.5861,-2.2699 21.7562,0.2699 21.7563,0.2698 27.5715,85.744 c 15.1643,47.1593 27.8703,85.4093 28.2354,85 0.5588,-0.6262 41.9691,-125.4642 53.4038,-160.994 l 3.6206,-11.25 17.1999,0.012 17.1999,0.012 28.4687,86.4693 c 15.6578,47.5581 28.7691,86.1402 29.1363,85.738 0.3671,-0.4022 12.9812,-39.0909 28.0313,-85.9749 l 27.3637,-85.2436 21.2265,-0.01 21.2264,-0.01 -5.9752,17.25 c -3.2864,9.4875 -21.4595,62.025 -40.3846,116.75 l -34.4095,99.5 -17.4861,0.2726 -17.4861,0.2727 -1.1643,-3.2727 c -0.6404,-1.7999 -13.3271,-38.8199 -28.1926,-82.2666 -14.8655,-43.4467 -27.3553,-79.5785 -27.7552,-80.293 -0.4167,-0.7447 -12.8745,34.2417 -29.1959,81.994 l -28.469,83.293 -17.5447,0.2724 -17.5448,0.2723 -39.7081,-114.7723 z"
           id="path324" />
        <path
           style="fill:#224a63"
           d="m 4106.5,1551.0029 c -28.7758,-3.0792 -53.734,-13.3102 -76.0028,-31.1552 l -6.3841,-5.116 10.612,-12.6158 c 5.8367,-6.9388 11.3617,-13.4289 12.2779,-14.4225 1.5905,-1.725 2.0913,-1.4866 11.0814,5.2759 10.7038,8.0516 25.2178,15.8459 35.2155,18.9114 10.7088,3.2836 26.9691,4.742 37.7287,3.3838 23.184,-2.9263 35.864,-17.014 32.0125,-35.5664 -2.8447,-13.7029 -15.6484,-20.9877 -53.0411,-30.1779 -41.687,-10.2458 -60.612,-20.9776 -70.1145,-39.7599 -4.1218,-8.1469 -5.8559,-16.664 -5.8559,-28.7603 0,-12.2866 1.7347,-20.6079 6.1,-29.2603 8.8539,-17.5494 24.3911,-29.5888 46.3704,-35.9312 7.1686,-2.0686 10.0784,-2.3081 28,-2.3043 20.9393,0 25.0271,0.5372 40,5.2128 10.9927,3.4326 22.6388,9.1258 33.4197,16.3369 4.9941,3.3406 9.0803,6.2502 9.0803,6.4658 0,0.402 -19.6806,28.3506 -20.9595,29.7648 -0.3902,0.4314 -3.3714,-0.991 -6.625,-3.161 -25.7761,-17.1914 -52.0679,-23.4682 -73.3054,-17.5008 -16.7068,4.6944 -25.2766,18.973 -20.7444,34.5635 1.2085,4.1568 2.709,6.5497 6.0225,9.604 7.705,7.1022 15.3865,10.2878 41.4399,17.1858 40.3163,10.6742 54.962,17.3548 67.0559,30.5874 9.7329,10.6494 14.0653,22.8611 14.0986,39.7392 0.068,34.4624 -21.9385,59.437 -59.1096,67.0821 -9.4076,1.9349 -28.0623,2.7215 -38.373,1.6182 z"
           id="path320" />
        <path
           style="fill:#224a63"
           d="m 2103.7418,1550.4431 c -41.2831,-6.4259 -66.4995,-30.3634 -75.8582,-72.0112 -2.1814,-9.7074 -2.2406,-11.6557 -2.6196,-86.1819 l -0.3878,-76.25 h 20.5259 20.526 l 0.311,75.25 c 0.3453,83.5615 0.038,79.5609 7.2418,94.3205 6.3734,13.0583 15.6218,21.0629 30.1277,26.0758 6.9763,2.4108 9.3989,2.7321 20.8914,2.7704 9.807,0.033 14.4609,-0.4025 18.9477,-1.7721 20.097,-6.1343 32.2513,-18.942 37.719,-39.7467 2.1626,-8.229 2.2145,-9.8909 2.5783,-82.6479 l 0.3714,-74.25 H 2204.0582 2224 v 71.2762 c 0,43.8665 -0.4048,74.5349 -1.0528,79.75 -4.5123,36.3197 -21.871,62.3661 -50.3258,75.5131 -18.0682,8.348 -45.6742,11.5157 -68.8796,7.9038 z"
           id="path318" />
        <path
           style="fill:#224a63"
           d="m 1836.5,1550.8915 c -17.3812,-2.5047 -39.84,-11.9381 -54.1686,-22.7527 -45.5747,-34.3976 -59.7382,-99.3881 -33.0346,-151.5821 12.185,-23.8163 31.379,-42.1441 56.0938,-53.5624 31.7842,-14.6843 72.4182,-14.6619 105.2264,0.058 16.4764,7.3925 36.144,23.7102 46.2577,38.3791 9.724,14.1035 17.2853,32.2497 20.2378,48.5684 1.9471,10.7617 1.7348,35.5163 -0.3909,45.5608 -5.1794,24.4751 -16.0526,44.9175 -32.7015,61.4813 -17.8128,17.7217 -40.6622,29.459 -65.0476,33.4137 -10.2138,1.6564 -32.4206,1.8842 -42.4725,0.4357 z m 44,-38.8742 c 25.0544,-7.9265 42.7001,-25.7136 51.6038,-52.0173 2.8597,-8.4482 3.2668,-11.0608 3.6773,-23.598 0.7197,-21.9793 -3.2054,-36.898 -13.9243,-52.9241 -26.5511,-39.6972 -83.1807,-46.1726 -118.2318,-13.5194 -10.0026,9.3183 -18.651,24.348 -22.7531,39.5415 -3.0549,11.3149 -3.0898,33.5749 -0.07,44.6985 8.3117,30.6169 30.5989,52.7032 59.7503,59.2115 10.1721,2.271 30.6207,1.5581 39.9478,-1.3927 z"
           id="path316" />
        <path
           style="fill:#224a63"
           d="m 1270.9217,1550.4482 c -47.0889,-8.5271 -83.0086,-43.7466 -93.5466,-91.7229 -2.4353,-11.0867 -2.9128,-35.1299 -0.9371,-47.1825 5.1796,-31.599 22.5191,-59.853 47.8054,-77.8969 39.2955,-28.0407 99.2931,-29.0781 140.4145,-2.4276 8.3732,5.4265 20.5512,15.6544 20.133,16.9089 -0.1685,0.5057 -5.8592,7.3836 -12.646,15.2843 l -12.3395,14.3648 -8.2751,-6.6381 c -14.6752,-11.7723 -29.0596,-18.7359 -43.5303,-21.0732 -41.6521,-6.7278 -78.7551,19.0633 -88.653,61.6245 -2.3899,10.2764 -2.3929,30.9362 -0.01,40.6733 4.2573,17.3663 11.9162,30.8778 24.02,42.3753 8.4192,7.9974 17.3546,13.3661 28.4722,17.107 6.9926,2.3528 9.0735,2.5772 23.6667,2.5514 14.6138,-0.026 16.6988,-0.2595 24.0661,-2.6978 11.4807,-3.7996 21.7701,-10.1805 39.0423,-24.2115 l 3.1083,-2.5251 12.7343,13.1437 12.7344,13.1436 -5.3427,5.4586 c -17.1781,17.5507 -40.8126,29.8463 -64.8702,33.7478 -11.6613,1.8911 -35.5873,1.8872 -46.0508,-0.01 z"
           id="path314" />
        <path
           style="fill:#224a63"
           d="m 551.5,1550.3976 c -43.01004,-7.6502 -76.93805,-36.5225 -91.42796,-77.8039 -1.71938,-4.8985 -3.85065,-12.9985 -4.73614,-18 -2.13394,-12.0531 -2.09871,-33.4103 0.074,-44.8686 9.09094,-47.9428 45.26947,-84.8024 93.59009,-95.3522 11.9107,-2.6004 40.88241,-2.5872 53,0.024 44.95588,9.6879 79.01185,42.1032 90.67746,86.309 3.15346,11.9498 4.32063,37.0262 2.35188,50.5301 -1.57783,10.8226 -6.22166,25.1829 -11.56531,35.7639 -16.8477,33.3604 -49.0257,56.9625 -86.4166,63.3853 -11.59267,1.9914 -34.38631,1.9975 -45.54743,0.012 z m 40.28509,-36.9882 c 28.25839,-5.837 49.87336,-26.3804 58.82562,-55.9094 2.44967,-8.0802 2.73447,-10.5841 2.78675,-24.5 0.068,-18.0976 -1.23004,-24.4644 -7.84934,-38.5 -8.14683,-17.2746 -19.43558,-28.8817 -36.04812,-37.0647 -13.05803,-6.4321 -19.55141,-7.8972 -35,-7.8972 -15.55052,0 -21.90876,1.4544 -35.46234,8.1119 -8.0045,3.9318 -10.85481,6.0501 -18.50026,13.7489 -16.1313,16.2441 -23.15703,32.3575 -24.24301,55.6011 -0.63195,13.526 0.65532,23.1982 4.62211,34.7293 8.9497,26.0158 31.19868,46.0687 57.44746,51.7773 8.50113,1.8488 24.2213,1.803 33.42113,-0.097 z"
           id="path202" />
      </g>
      <g
         id="FR"
         transform="matrix(0.98188992,0,0,0.98188992,0.01811008,23.758654)">
        <path
           style="fill:#224a63"
           d="m 4473.3456,1432 v -116 h 86.5 86.5 v 18 18 h -66 -66 v 30.5 30.5 h 58.5 58.5 v 18 18 h -58.5 -58.5 v 31.5 67.2815 c 0.2507,0 30.9119,0.2185 -41,0.2185 z"
           id="path402"
           sodipodi:nodetypes="cccccccccccccccccccc" />
        <path
           style="fill:#224a63"
           d="m 4683.3015,1431.944 v -116.0558 l 61.75,0.3944 c 65.8223,0.4204 65.4787,0.3964 80.5037,5.6139 16.5038,5.731 31.7399,17.879 39.0098,31.1032 6.6193,12.0407 8.244,19.3877 8.1818,37 -0.05,14.0479 -0.3049,16.2495 -2.7245,23.5 -3.8263,11.4661 -9.0731,19.6692 -17.8914,27.9722 -7.9027,7.4408 -18.3989,13.6784 -28.5794,16.9839 -2.8875,0.9376 -5.25,1.8769 -5.25,2.0875 0,0.2106 12.9485,18.512 28.7744,40.6697 15.826,22.1577 29.8066,41.7492 31.0681,43.5367 l 2.2937,3.25 h -23.8718 -23.8719 l -28.4462,-40.4666 -28.4463,-40.4666 -25.75,-0.033 -25.75,-0.033 v 40.5 40.5 h -20.5 -20.5 v -116.0557 z m 117.5399,-2.4747 c 13.5748,-3.4858 23.4211,-10.8844 28.279,-21.2493 2.4097,-5.1413 2.6773,-6.8337 2.6435,-16.7203 -0.04,-11.7285 -1.002,-15.303 -6.1074,-22.6962 -3.2339,-4.6831 -11.1256,-10.1199 -18.855,-12.9899 -5.7448,-2.1332 -7.6266,-2.2431 -44.25,-2.5851 l -38.25,-0.3573 v 39.0643 39.0642 h 35.2899 c 28.418,0 36.4505,-0.298 41.25,-1.5304 z"
           id="path404" />
      </g>
    </g>
  </g>
</svg>
