<?xml version="1.0" encoding="UTF-8" standalone="no"?>
<!-- Created with Inkscape (http://www.inkscape.org/) -->

<svg
   version="1.1"
   id="svg32"
   width="693.44"
   height="228.72"
   viewBox="0 0 693.44 228.72"
   sodipodi:docname="pow-white.svg"
   inkscape:version="1.2 (dc2aeda, 2022-05-15)"
   xmlns:inkscape="http://www.inkscape.org/namespaces/inkscape"
   xmlns:sodipodi="http://sodipodi.sourceforge.net/DTD/sodipodi-0.dtd"
   xmlns="http://www.w3.org/2000/svg"
   xmlns:svg="http://www.w3.org/2000/svg">
  <defs
     id="defs36" />
  <sodipodi:namedview
     id="namedview34"
     pagecolor="#ffffff"
     bordercolor="#000000"
     borderopacity="0.25"
     inkscape:showpageshadow="2"
     inkscape:pageopacity="0.0"
     inkscape:pagecheckerboard="true"
     inkscape:deskcolor="#d1d1d1"
     showgrid="false"
     inkscape:zoom="1.3449957"
     inkscape:cx="420.44744"
     inkscape:cy="275.46556"
     inkscape:window-width="1463"
     inkscape:window-height="1027"
     inkscape:window-x="0"
     inkscape:window-y="25"
     inkscape:window-maximized="0"
     inkscape:current-layer="g38"
     inkscape:lockguides="false"
     showguides="false" />
  <g
     inkscape:groupmode="layer"
     inkscape:label="Image"
     id="g38">
    <path
       style="fill:#ffffff;stroke-width:0.08"
       d="m 544.62906,166.59474 c -0.80877,-0.2492 -1.60335,-1.02106 -1.88876,-1.83474 C 542.60693,164.37975 542.6,160.426 542.6,84.67832 V 4.9966353 l 0.26193,-0.5320533 c 0.32445,-0.6590559 0.95658,-1.2597819 1.59833,-1.5189341 L 544.92,2.76 h 73.12 c 69.49305,0 73.13984,0.00696 73.52,0.1403039 0.91943,0.3224999 1.6253,1.0982347 1.74962,1.9228206 0.1216,0.8064039 0.16581,157.9164655 0.0448,159.2168755 -0.0682,0.7331 -0.14052,1.11334 -0.24503,1.28852 -0.22511,0.37733 -0.90903,0.98172 -1.33203,1.17714 L 691.4,166.68 l -73.2,0.0145 c -63.2465,0.0125 -73.25044,-0.001 -73.57094,-0.0998 z m 77.47068,-9.14472 c 0.60134,-0.23717 1.27063,-0.85174 1.55047,-1.42372 0.16238,-0.3319 0.22529,-0.59852 0.24899,-1.0552 0.0174,-0.33611 -0.15074,-5.55687 -0.37374,-11.6017 -0.223,-6.04482 -0.40546,-11.09382 -0.40546,-11.22 0,-0.18486 0.0349,-0.22921 0.18,-0.22839 0.11644,8e-4 2.83467,2.09182 7.69816,5.92229 8.3112,6.54588 7.9172,6.27406 8.74499,6.03341 0.72576,-0.21098 0.98055,-0.52534 2.6497,-3.2691 0.85287,-1.40196 1.56265,-2.65803 1.61715,-2.8618 0.12373,-0.46262 0.007,-0.91919 -0.36307,-1.42581 -0.23329,-0.31896 -1.4342,-1.07485 -10.53511,-6.63107 -5.6495,-3.4491 -10.28072,-6.27799 -10.2916,-6.28644 -0.0297,-0.0231 -1.13983,-30.932802 -1.14004,-31.74249 0,-0.679072 0.005,-0.7 0.18558,-0.7 0.10514,0 6.1199,3.596304 13.86,8.287072 7.52083,4.557898 13.68766,8.300308 13.70406,8.316478 0.0164,0.0162 0.23982,5.41667 0.49649,12.00111 0.30365,7.7896 0.49989,12.07363 0.56175,12.26352 0.22813,0.70027 0.83524,1.27974 1.52984,1.46018 0.43731,0.11361 5.79554,-0.10725 6.2221,-0.25646 0.66796,-0.23365 1.1953,-0.79295 1.37258,-1.45572 0.093,-0.34767 10e-4,-0.98804 -1.39727,-9.75414 -0.82322,-5.16012 -1.49645,-9.42704 -1.49605,-9.48204 0.003,-0.34804 0.69637,0.0466 10.24185,5.82492 5.38317,3.2587 9.91612,5.98159 10.07323,6.05086 0.15915,0.0702 0.51988,0.12843 0.81451,0.13156 0.44157,0.005 0.61582,-0.0372 1.05579,-0.25381 0.31358,-0.15438 0.65011,-0.39984 0.83115,-0.60624 0.42885,-0.48895 3.18687,-5.3742 3.34909,-5.93223 0.11329,-0.3897 0.11826,-0.52328 0.0342,-0.91928 -0.12696,-0.5983 -0.46446,-1.1834 -0.89598,-1.55333 -0.19935,-0.1709 -4.58339,-2.53495 -10.46312,-5.64213 -9.58606,-5.06582 -10.12116,-5.35991 -10.14204,-5.57415 l -0.022,-0.22617 8.81986,-3.52 c 6.28811,-2.509584 8.896,-3.586304 9.08509,-3.750976 0.45477,-0.396008 0.69647,-0.897528 0.69789,-1.448128 10e-4,-0.473024 -0.0226,-0.52488 -1.4314,-3.112576 -0.78794,-1.447344 -1.53741,-2.750872 -1.66547,-2.89672 -0.12806,-0.145856 -0.42898,-0.361152 -0.66871,-0.47844 -0.82511,-0.403688 -0.0409,-0.778864 -11.77652,5.634104 -7.71643,4.21668 -10.63252,5.772736 -10.81823,5.772736 -0.18295,0 -4.21147,-2.09188 -14.3664,-7.46 -14.02129,-7.411968 -14.11202,-7.461488 -14.09209,-7.691696 0.0192,-0.22128 0.64743,-0.575112 13.98006,-7.873409 7.678,-4.202945 14.07307,-7.657162 14.21126,-7.676039 0.21088,-0.0288 1.94718,0.863019 10.8,5.547258 5.80181,3.06987 10.70896,5.629806 10.9048,5.688742 0.56197,0.169128 1.12864,-0.02726 1.64394,-0.569721 0.55398,-0.583196 3.0863,-5.386297 3.14124,-5.958065 0.0467,-0.485588 -0.19888,-1.074649 -0.61893,-1.484809 -0.36905,-0.36037 0.19989,-0.131194 -10.1435,-4.085965 L 661.35762,65.24 l 0.0212,-0.232454 c 0.0202,-0.221692 0.48605,-0.486676 10.06119,-5.723141 10.87242,-5.945919 10.59511,-5.777536 11.01104,-6.686043 0.30176,-0.659131 0.33005,-1.183307 0.0951,-1.762563 -0.30393,-0.749381 -3.00924,-5.316192 -3.37664,-5.700092 -0.18123,-0.189361 -0.55817,-0.457111 -0.83766,-0.595 -0.62576,-0.308726 -1.28717,-0.340008 -1.85184,-0.08758 -0.198,0.08851 -4.698,2.873935 -10,6.189832 -6.29392,3.93625 -9.73025,6.040295 -9.9,6.061726 -0.1814,0.0229 -0.26053,-5.3e-5 -0.26175,-0.07593 -9.6e-4,-0.05982 0.61573,-4.35374 1.37041,-9.542057 l 1.37217,-9.433305 -0.13197,-0.418647 c -0.16048,-0.509121 -0.63236,-1.022342 -1.15636,-1.257657 -0.32478,-0.145855 -0.59797,-0.174796 -2.1325,-0.225911 -0.968,-0.03224 -2.318,-0.0611 -3,-0.06412 -1.14455,-0.0051 -1.27079,0.0091 -1.64,0.183928 -0.49734,0.235517 -0.85842,0.609417 -1.09033,1.129015 -0.17741,0.397512 -0.18038,0.474818 -0.47868,12.430587 -0.16509,6.616823 -0.3296,12.056887 -0.36557,12.089032 -0.036,0.03215 -6.13142,3.85081 -13.54542,8.485921 -8.76181,5.477738 -13.56977,8.438617 -13.73647,8.459308 l -0.25648,0.03183 0.0387,-0.948341 c 0.0213,-0.521587 0.18535,-7.824341 0.36455,-16.228341 0.17919,-8.404 0.33117,-15.285087 0.33774,-15.291306 0.007,-0.0062 4.56593,-2.878261 10.13193,-6.382318 6.9553,-4.378682 10.21417,-6.473971 10.42113,-6.70025 0.40635,-0.444292 0.596,-1.078897 0.45961,-1.537961 -0.11855,-0.398967 -3.13292,-5.248032 -3.47512,-5.590231 -0.31292,-0.312923 -0.87769,-0.562212 -1.28562,-0.567468 -0.176,-0.0023 -0.482,0.07192 -0.68,0.164848 -0.198,0.09293 -3.64827,2.836507 -7.66726,6.096828 -5.16265,4.188087 -7.36384,5.927858 -7.5,5.927858 -0.19272,0 -0.19274,-8e-5 -0.19264,-0.94 6e-5,-0.517 0.10848,-5.708363 0.24092,-11.536362 0.22278,-9.802541 0.23128,-10.629596 0.1134,-11.04 -0.25873,-0.900775 -0.82752,-1.534086 -1.70015,-1.892997 -0.44772,-0.184149 -0.49712,-0.186871 -3.42585,-0.188742 -2.77094,-0.0018 -3.00735,0.0092 -3.50152,0.161786 -0.70926,0.219069 -1.26884,0.681965 -1.63724,1.354371 -0.25485,0.465146 -0.28676,0.59179 -0.3124,1.24 -0.0157,0.39707 0.15406,5.671944 0.37724,11.721944 0.22318,6.05 0.40572,11.045 0.40564,11.1 -8e-4,0.39333 -0.55639,-0.0142 -7.89396,-5.78767 -5.31296,-4.180436 -7.58561,-5.922737 -7.83763,-6.008606 -0.46093,-0.157057 -0.94042,-0.08511 -1.40767,0.211206 -0.47829,0.303318 -0.5301,0.377253 -2.2692,3.238092 -1.40392,2.309459 -1.50542,2.502585 -1.53458,2.92 -0.0261,0.373231 0.006,0.518153 0.19583,0.878371 0.12489,0.237265 0.35307,0.531505 0.50707,0.653864 0.154,0.122359 4.816,2.98362 10.36,6.358356 5.544,3.374737 10.10514,6.158498 10.13586,6.186136 0.0481,0.04325 1.18414,30.774573 1.18414,32.031933 0,0.414028 -0.0164,0.458318 -0.17006,0.458318 -0.0935,0 -6.34894,-3.74477 -13.90088,-8.32171 l -13.7308,-8.321712 -0.42571,-11.098288 c -0.52533,-13.695314 -0.48495,-12.995612 -0.7813,-13.540445 -0.26483,-0.486875 -0.77751,-0.899383 -1.29961,-1.045696 -0.47098,-0.131987 -5.61117,0.04302 -6.21862,0.21172 -0.80095,0.222445 -1.50712,1.131238 -1.48892,1.916131 0.004,0.176 0.65732,4.363559 1.45166,9.305687 0.79433,4.942128 1.44424,9.131215 1.44424,9.30908 0,0.307861 -0.0106,0.321728 -0.22,0.288735 -0.121,-0.01906 -4.55872,-2.664192 -9.86161,-5.878069 -5.30288,-3.213877 -9.80288,-5.928185 -10,-6.031795 -0.52501,-0.275965 -1.39484,-0.270366 -1.99858,0.01287 -0.76987,0.361167 -1.04187,0.725898 -2.59839,3.484195 -0.79122,1.402115 -1.50594,2.747301 -1.58827,2.989301 -0.10597,0.311508 -0.13602,0.556604 -0.1029,0.839293 0.0654,0.558112 0.46986,1.337451 0.87872,1.69311 0.20617,0.179344 4.35717,2.419035 10.49604,5.663171 9.83869,5.199349 10.15499,5.373564 10.15499,5.593421 0,0.226536 -0.0149,0.232878 -8.68,3.694089 -4.774,1.90694 -8.806,3.536687 -8.96,3.621661 -0.37697,0.208002 -0.76968,0.734021 -0.9161,1.227093 -0.10989,0.370043 -0.10812,0.440104 0.0207,0.816469 0.1495,0.436804 2.81583,5.346949 3.04206,5.602069 0.22723,0.256256 0.71812,0.528984 1.11435,0.619112 0.29786,0.06776 0.44922,0.06172 0.7071,-0.02818 0.18046,-0.06292 5.04747,-2.697034 10.81557,-5.853591 7.26047,-3.973247 10.5461,-5.731275 10.67804,-5.713455 0.10482,0.01416 6.55082,3.389312 14.32443,7.500344 13.20556,6.983678 14.13385,7.48815 14.13385,7.680902 0,0.191776 -0.99091,0.748432 -14.07249,7.9054 -7.73987,4.234504 -14.13944,7.699091 -14.22125,7.699091 -0.0818,0 -4.90871,-2.517043 -10.72642,-5.593435 -5.81771,-3.076384 -10.70685,-5.636072 -10.86475,-5.688184 -0.58784,-0.194 -1.45206,0.140472 -1.89444,0.733208 -0.31227,0.418408 -2.86924,5.311808 -2.94035,5.627112 -0.12394,0.54952 0.23593,1.362312 0.7997,1.806168 0.18302,0.144096 3.18934,1.3348 8.68,3.437871 4.62,1.76957 8.589,3.28987 8.82,3.37845 0.36344,0.13934 0.42,0.19016 0.42,0.37738 0,0.20486 -0.53599,0.50913 -10.09202,5.7289 -10.89323,5.95017 -10.59917,5.77214 -11.02148,6.67234 -0.26092,0.55619 -0.28764,1.47549 -0.0558,1.9202 0.5874,1.12673 3.03351,5.21107 3.30132,5.51229 0.18262,0.20541 0.54261,0.48016 0.8,0.61058 0.40457,0.20499 0.55469,0.23682 1.10798,0.23495 0.49854,-0.002 0.71224,-0.0404 0.96683,-0.17491 0.17975,-0.095 4.62575,-2.86423 9.88,-6.15383 6.24616,-3.91063 9.64317,-5.99243 9.81317,-6.01385 0.25099,-0.0316 0.26,-0.0228 0.26,0.25351 0,0.15744 -0.594,4.38049 -1.32,9.38456 -0.726,5.00407 -1.32,9.22382 -1.32,9.37723 0,0.6218 0.73743,1.53999 1.41047,1.7562 0.46271,0.14867 5.88423,0.29815 6.29958,0.17371 0.71656,-0.21468 1.31535,-0.8283 1.49501,-1.53204 0.0559,-0.21878 0.19969,-4.79017 0.38659,-12.28637 0.16369,-6.56589 0.31354,-11.95097 0.33299,-11.96686 0.0195,-0.0159 6.12466,-3.83281 13.56714,-8.482039 8.94251,-5.586272 13.6024,-8.453136 13.74,-8.453136 0.2062,0 0.20824,0.006 0.21034,0.62 10e-4,0.341 -0.14682,7.622 -0.32887,16.180005 -0.23682,11.13258 -0.35692,15.58619 -0.42212,15.65205 -0.0501,0.0506 -4.59113,2.92403 -10.09113,6.38534 -5.5,3.46132 -10.12015,6.40791 -10.26701,6.54796 -0.52955,0.50503 -0.75095,1.21365 -0.55445,1.77465 0.13025,0.3719 3.09018,5.0887 3.40756,5.43012 0.28176,0.30312 0.93888,0.60812 1.31228,0.6091 0.16411,8e-4 0.44388,-0.0574 0.62172,-0.1286 0.1884,-0.0754 3.40253,-2.6287 7.70162,-6.11822 4.83088,-3.92116 7.44042,-5.98947 7.55828,-5.99063 0.16593,-0.002 0.18005,0.0342 0.18066,0.45823 0,0.25299 -0.10988,5.4561 -0.24496,11.56245 -0.22908,10.35464 -0.23687,11.13257 -0.11566,11.54951 0.26313,0.90514 0.98409,1.67293 1.8282,1.94691 0.46169,0.14986 0.67524,0.15818 3.49176,0.13605 2.90018,-0.0228 3.0153,-0.0296 3.45974,-0.20491 z"
       id="path12740" />
    <path
       style="fill:#ffffff;stroke-width:0.08"
       d="m 205.36,169.51671 c -9.52087,-0.56273 -18.06763,-2.24517 -26.28,-5.17328 -17.62771,-6.28513 -32.30169,-17.70171 -42.34285,-32.94339 -6.09341,-9.2493 -10.40988,-20.1364 -12.30862,-31.04507 l -0.22367,-1.285074 -1.18604,1.218834 c -8.08886,8.31253 -19.21999,14.16966 -32.65882,17.18488 -5.698928,1.27864 -11.48943,2.0106 -18.08,2.28542 -1.074302,0.0448 -7.408233,0.0803 -14.38,0.0805 L 45.44,119.84 v 23.28 23.28 H 22.808559 C 2.2454442,166.4 0.17268031,166.38843 0.1285591,166.27346 0.06506149,166.10798 0.06506149,3.4120151 0.1285591,3.246543 0.17274083,3.1314073 3.4594425,3.1200686 36.588559,3.1207603 59.109865,3.1212323 73.6714,3.1514351 74.76,3.199938 c 13.128984,0.5849658 24.005536,3.1682606 33.52,7.961349 5.81215,2.927983 10.34902,6.215159 14.64,10.607391 5.22187,5.345088 9.00882,11.544615 11.56078,18.925888 l 0.33694,0.974566 1.03786,-1.654566 C 142.58858,29.280742 151.8094,20.113292 162.72866,13.297005 174.26284,6.0968628 187.95944,1.5319615 201.76,0.28835658 c 3.83126,-0.34524484 15.54225,-0.31991239 19.28,0.0417052 C 242.90609,2.4455483 262.82898,12.200458 277.0614,27.76 c 2.72552,2.979666 5.10753,5.993234 7.50263,9.491852 0.44736,0.653482 0.79134,1.116148 0.76438,1.028148 -0.0269,-0.088 -2.64087,-7.969875 -5.80871,-17.515278 C 276.35186,11.219318 273.76,3.3443184 273.76,3.2647216 273.76,3.1254136 274.66013,3.12 297.8233,3.12 h 24.0633 l 14.06845,46.7 c 7.73765,25.685 14.09016,46.724248 14.1167,46.753888 0.0265,0.02964 5.8607,-17.46636 12.9648,-38.879999 C 370.14066,36.28025 377.1577,15.133 378.62997,10.7 l 2.67685,-8.06 h 19.61384 19.61383 l 1.87778,5.66 c 1.03279,3.113 8.04855,24.262168 15.59061,46.998151 7.54206,22.735983 13.7368,41.293985 13.7661,41.240001 0.04,-0.07377 27.93465,-92.5682108 28.13096,-93.278152 0.0368,-0.1329293 1.23016,-0.14 23.62939,-0.14 H 527.12 v 0.1783214 c 0,0.098077 -12.249,37.0880286 -27.22,82.1998946 l -27.22,82.021564 -19.88,-0.002 -19.88,-0.002 -16.27326,-46.5182 c -8.95029,-25.585004 -16.29429,-46.518174 -16.32,-46.518146 -0.0257,2.6e-5 -7.31682,20.934094 -16.20247,46.520156 l -16.15572,46.52009 -19.87988,-0.0202 L 328.2088,167.48 314.39358,125.84 C 298.578,78.170777 298.62663,78.316314 298.67637,78.8 c 0.0204,0.198 0.0803,1.576024 0.13331,3.062272 0.21652,6.0758 -0.26567,12.606392 -1.37154,18.575358 -5.55492,29.98292 -26.97264,54.39683 -56.43814,64.33344 -7.5334,2.54048 -14.58019,3.94884 -23.2,4.63671 -1.85126,0.14774 -10.50168,0.22345 -12.44,0.10889 z m 8.84,-41.12161 c 13.34158,-0.92113 24.8633,-7.9879 31.76246,-19.48126 3.13696,-5.22589 5.26021,-11.43532 6.02968,-17.6338 0.31857,-2.566248 0.36455,-3.367144 0.36284,-6.32 -0.002,-3.0422 -0.0882,-4.37936 -0.44212,-6.84 -1.21662,-8.458041 -4.67302,-16.30791 -9.98609,-22.679531 -1.01334,-1.215224 -3.07302,-3.318591 -4.36677,-4.459392 -8.31979,-7.33619 -19.51324,-10.905581 -30.7969,-9.820579 -7.50882,0.722026 -14.36575,3.34318 -20.1631,7.707624 -2.17506,1.637455 -4.85992,4.179013 -6.51519,6.16744 -5.84757,7.02448 -9.22659,15.364472 -10.17938,25.124438 -0.14201,1.454768 -0.1425,7.17756 -8e-4,8.64 0.76461,7.887472 3.19927,14.98218 7.27508,21.2 1.92062,2.92998 4.20651,5.64581 6.62023,7.86542 8.29208,7.6252 18.95816,11.31962 30.4,10.52964 z M 70.64,83.893344 C 75.077718,83.369248 78.247969,82.488512 81.36,80.9152 86.48124,78.326123 90.019728,74.16081 91.480792,69.001569 92.080384,66.884316 92.281232,65.297894 92.276088,62.72 92.268408,58.885516 91.647832,55.926148 90.237744,53 89.151616,50.74611 87.567936,48.732478 85.56,47.052278 82.660016,44.625637 78.49504,42.859914 73.746998,42.044212 70.41664,41.472065 69.586844,41.442645 56.74,41.441238 L 45.44,41.44 v 21.32384 21.32384 l 12.02,-0.02866 c 10.724108,-0.02558 12.145061,-0.04344 13.18,-0.165672 z"
       id="path12738" />
    <path
       style="fill:#ffffff;stroke-width:0.08"
       d="m 620.4,207.036 v -21.12355 l 10.58,0.0287 c 9.50742,0.0258 10.67327,0.0427 11.5,0.16651 3.58801,0.53735 6.29001,1.65126 8.4579,3.48679 1.82539,1.54554 3.17807,3.95469 3.74847,6.6761 0.25312,1.20762 0.35137,3.68062 0.19901,5.00899 -0.26448,2.30594 -0.9172,4.11991 -2.11552,5.87918 -0.61593,0.90427 -1.86613,2.1581 -2.85222,2.8605 -0.91946,0.65494 -2.69575,1.56337 -3.84168,1.96471 l -0.84404,0.29561 5.50335,7.72 c 4.07389,5.71478 5.50353,7.77731 5.50404,7.94066 l 8e-4,0.22066 -4.52871,-0.0207 -4.5287,-0.0207 -5.09906,-7.24 -5.09905,-7.24 -4.41224,-0.0207 -4.41224,-0.0207 v 7.28067 7.28068 h -3.88 -3.88 v -21.12356 z m 20.08,-0.51281 c 2.84324,-0.43181 4.92831,-1.78273 5.91801,-3.83429 0.79317,-1.64417 0.89998,-3.3769 0.31569,-5.12092 -0.76318,-2.27792 -2.53018,-3.6592 -5.5137,-4.31013 -0.72426,-0.15802 -1.04872,-0.16724 -6.9,-0.19617 l -6.14,-0.0303 v 6.80411 6.80411 l 5.78,-8e-4 c 4.62952,0 5.93127,-0.0234 6.54,-0.1159 z"
       id="path12736" />
    <path
       style="fill:#ffffff;stroke-width:0.08"
       d="m 580.32,207.04 v -21.12 h 15.72 15.72 v 3.48 3.48 h -11.84 -11.84 v 5.24 5.24 h 10.48 10.48 v 3.52 3.52 h -10.48 -10.48 v 5.4 5.4 h 12 12 v 3.48 3.48 H 596.2 580.32 Z"
       id="path12734" />
    <path
       style="fill:#ffffff;stroke-width:0.08"
       d="m 554.24,210.64 v -17.52 h -6.64 -6.64 v -3.6 -3.6 h 17.2 17.2 v 3.6 3.6 h -6.64 -6.64 v 17.52 17.52 h -3.92 -3.92 z"
       id="path12732" />
    <path
       style="fill:#ffffff;stroke-width:0.08"
       d="m 499.12,207.04 v -21.12 h 3.59468 3.59469 l 10.98531,14.1823 10.98532,14.18231 0.0202,-14.18231 0.0202,-14.1823 H 532.16022 536 v 21.12 21.12 l -3.3,-0.004 -3.3,-0.004 -11.32,-14.59752 -11.32,-14.59753 -0.0202,14.60158 -0.0202,14.60157 H 502.91978 499.12 v -21.12 z"
       id="path12730" />
    <path
       style="fill:#ffffff;stroke-width:0.08"
       d="m 480.56,207.04 v -21.12 h 3.88 3.88 v 21.12 21.12 h -3.88 -3.88 z"
       id="path12728" />
    <path
       style="fill:#ffffff;stroke-width:0.08"
       d="m 374.24,207.03644 v -21.12355 l 10.58,0.0287 c 11.426,0.031 10.93321,0.0136 13.17478,0.46435 3.12276,0.62794 6.18591,2.2888 7.84974,4.25619 1.5495,1.8322 2.50734,4.0354 2.8397,6.53179 0.13339,1.00181 0.15039,3.29175 0.0316,4.24821 -0.47627,3.83318 -2.26019,6.77783 -5.35577,8.84056 -0.96379,0.64222 -2.2833,1.29982 -3.35632,1.67269 -0.45998,0.15984 -0.84961,0.30391 -0.86586,0.32016 -0.0162,0.0163 2.45664,3.51591 5.49531,7.77702 3.36306,4.71601 5.52524,7.81816 5.52585,7.92813 l 0.001,0.18065 -4.57936,-0.0206 -4.57936,-0.0207 -5.09142,-7.24 -5.09141,-7.24 -4.40922,-0.0207 -4.40923,-0.0207 v 7.28067 7.28068 h -3.88 -3.88 v -21.12356 z m 20.08,-0.51415 c 1.05944,-0.16278 1.8359,-0.39393 2.70812,-0.80621 1.54656,-0.73103 2.56886,-1.69644 3.21223,-3.03345 0.51274,-1.06554 0.66235,-1.70053 0.66973,-2.84263 0.0213,-3.30183 -1.90404,-5.62057 -5.35008,-6.44311 -1.39804,-0.33371 -1.90855,-0.35689 -7.8579,-0.35689 H 382 v 6.8 6.8 l 5.78,-8e-4 c 4.66438,0 5.92669,-0.023 6.54,-0.11724 z"
       id="path12726" />
    <path
       style="fill:#ffffff;stroke-width:0.08"
       d="m 255.2,210.64 v -17.52 h -6.64 -6.64 v -3.6 -3.6 h 17.2 17.2 v 3.6 3.6 h -6.64 -6.64 v 17.52 17.52 h -3.92 -3.92 z"
       id="path12724" />
    <path
       style="fill:#ffffff;stroke-width:0.08"
       d="m 164.32,207.04 v -21.12 h 15.72 15.72 v 3.48 3.48 h -11.84 -11.84 v 5.24 5.24 h 10.48 10.48 v 3.52 3.52 h -10.48 -10.48 v 5.4 5.4 h 12 12 v 3.48 3.48 H 180.2 164.32 Z"
       id="path12722" />
    <path
       style="fill:#ffffff;stroke-width:0.08"
       d="m 135.84,210.64 v -17.52 h -6.64 -6.64 v -3.6 -3.6 h 17.2 17.2 v 3.6 3.6 h -6.64 -6.64 v 17.52 17.52 h -3.92 -3.92 z"
       id="path12720" />
    <path
       style="fill:#ffffff;stroke-width:0.08"
       d="m 39.76,207.0362 v -21.12379 l 10.62,0.0292 c 9.54618,0.0263 10.712653,0.0432 11.536326,0.16703 3.312089,0.49811 5.890546,1.51216 7.963674,3.13193 2.112392,1.65045 3.56557,4.08403 4.203483,7.03941 0.137483,0.63694 0.181116,1.17161 0.214075,2.62318 0.04534,1.99675 -0.02461,2.85956 -0.340037,4.19421 -0.781378,3.30624 -2.838699,5.98063 -5.960387,7.74815 -0.786322,0.44522 -2.391088,1.1405 -3.028563,1.31216 -0.180714,0.0486 -0.328571,0.10348 -0.328571,0.12183 0,0.0183 2.484,3.51057 5.52,7.76047 3.710225,5.19371 5.52,7.79151 5.52,7.92355 V 228.16 H 71.135253 66.590506 L 61.475253,220.8833 56.36,213.60659 51.94,213.6033 47.52,213.6 v 7.28 7.28 h -3.88 -3.88 z m 20.332221,-0.55145 c 2.820997,-0.48228 4.817164,-1.84471 5.788473,-3.95077 0.384241,-0.83315 0.51999,-1.41669 0.570863,-2.45398 0.0792,-1.61476 -0.356661,-3.07019 -1.288251,-4.30179 -0.734896,-0.97155 -2.149073,-1.85677 -3.659787,-2.29086 C 60.04633,193.06865 59.519596,193.04 53.27725,193.04 H 47.52 v 6.8 6.8 h 5.83205 c 5.407284,0 5.898192,-0.0113 6.740171,-0.15525 z"
       id="path12718" />
    <path
       style="fill:#ffffff;stroke-width:0.08"
       d="M 0.1,228.04034 C 0.02054531,227.95009 0,223.63502 0,207.03766 0,189.04045 0.01582168,186.13275 0.11428571,186.03429 0.21192143,185.93665 1.486451,185.92 8.862668,185.92 c 10.078287,0 10.728047,0.0315 13.148234,0.63748 5.819204,1.45705 9.632878,5.49918 10.418419,11.04252 0.274649,1.93813 0.230832,4.16377 -0.115717,5.87762 -1.222768,6.04716 -5.936003,9.97153 -13.273604,11.05194 -0.769982,0.11338 -1.777714,0.14086 -6.18,0.16856 l -5.26,0.0331 v 6.71439 6.71439 l -3.7,-0.003 c -3.09289488,-0.003 -3.71640825,-0.0217 -3.8,-0.11662 z m 18.163114,-20.58869 c 2.788099,-0.62734 4.649915,-1.91291 5.69176,-3.93011 0.521174,-1.00909 0.693083,-1.68722 0.740631,-2.92154 0.0802,-2.08188 -0.482001,-3.69054 -1.767267,-5.05681 -0.960189,-1.02071 -2.189832,-1.70842 -3.762908,-2.10451 -1.458548,-0.36725 -1.998268,-0.39822 -6.94533,-0.39846 H 7.6 v 7.32496 7.32496 l 4.94,-0.031 c 4.740137,-0.0298 4.971683,-0.0382 5.723114,-0.20723 z"
       id="path12716" />
    <path
       style="fill:#ffffff;stroke-width:0.08"
       d="m 419.88225,207.4655 c -4.00277,-11.55794 -7.29171,-21.13392 -7.30875,-21.27997 l -0.031,-0.26553 4.18875,8e-4 4.18875,8e-4 4.87502,15.16028 c 2.68127,8.33815 4.90001,15.13283 4.93055,15.0993 0.0305,-0.0335 2.29975,-6.87398 5.0427,-15.20098 l 4.98719,-15.14 h 3.33563 3.33562 l 0.4431,1.34 c 0.24371,0.737 2.49934,7.58564 5.01252,15.21921 2.51318,7.63357 4.57597,13.88576 4.58397,13.89376 0.008,0.008 2.21102,-6.81363 4.89558,-15.15921 l 4.88102,-15.17376 4.05855,-0.0207 4.05855,-0.0207 8e-4,0.22072 c 0,0.12141 -3.28159,9.69812 -7.29311,21.2816 l -7.29368,21.06085 -3.3623,-0.0208 -3.36229,-0.0209 -5.01196,-14.66071 c -2.75659,-8.06339 -5.02672,-14.67546 -5.04476,-14.69349 -0.018,-0.018 -1.72114,4.9053 -3.7847,10.94071 -2.06356,6.03542 -4.32758,12.65649 -5.03115,14.71349 l -1.27923,3.74 -3.36869,-4e-5 -3.36869,-3e-5 -7.27775,-21.01443 z"
       id="path12714" />
    <path
       style="fill:#ffffff;stroke-width:0.08"
       d="m 675.80285,228.557 c -1.87866,-0.0586 -2.45591,-0.14285 -4.37404,-0.63834 -3.36815,-0.87008 -6.58845,-2.46708 -9.42596,-4.6745 -1.07822,-0.8388 -1.4,-1.1571 -1.4,-1.38486 0,-0.1293 0.69109,-1.01104 2.21322,-2.82376 1.75836,-2.09406 2.2521,-2.63575 2.4024,-2.63575 0.11205,0 0.39209,0.17192 0.68679,0.42163 2.86152,2.42469 6.0183,4.04944 9.04409,4.65486 1.90303,0.38078 3.65438,0.46379 5.1335,0.24333 3.47325,-0.51768 5.56,-2.41474 5.56,-5.05455 0,-1.20822 -0.3648,-2.09555 -1.19442,-2.90527 -1.26654,-1.23616 -3.1312,-1.99321 -7.79052,-3.16295 -4.30383,-1.08049 -6.22241,-1.71442 -8.25339,-2.72703 -3.44769,-1.71896 -5.25515,-3.9813 -5.93611,-7.43002 -0.11261,-0.57029 -0.14187,-1.11923 -0.14073,-2.64 10e-4,-1.69437 0.0228,-2.0183 0.18319,-2.75653 0.48606,-2.23717 1.46368,-4.02384 3.0886,-5.64458 1.98706,-1.98198 4.5192,-3.22782 7.7283,-3.80244 1.2493,-0.2237 4.46611,-0.30738 6.10263,-0.15874 4.47487,0.40642 8.39574,1.90915 11.95989,4.5838 0.69558,0.52199 0.74543,0.57819 0.71838,0.80988 -0.0198,0.16947 -0.65193,1.12374 -1.9799,2.98879 -2.15663,3.02886 -2.07521,2.95129 -2.63441,2.50953 -0.7524,-0.59438 -2.41802,-1.60297 -3.65151,-2.21112 -4.1273,-2.03489 -8.13446,-2.41478 -10.96,-1.03904 -1.29014,0.62816 -2.11734,1.48081 -2.5765,2.65576 -0.18447,0.47206 -0.21288,0.66204 -0.21312,1.42469 0,0.70939 0.0349,0.97999 0.18081,1.39568 0.39928,1.13714 1.18855,1.9354 2.64795,2.67817 1.49704,0.76193 3.05752,1.26625 6.95334,2.2472 3.44079,0.86638 5.31874,1.52125 7.36752,2.56918 1.88825,0.96581 3.28238,2.07774 4.30118,3.43052 0.50404,0.66928 1.14536,1.94547 1.36652,2.71925 0.44286,1.54957 0.3766,6.63703 -0.10524,8.08 -0.97174,2.91003 -3.03302,5.23359 -5.92246,6.67605 -1.17509,0.58662 -2.78744,1.13162 -4.12,1.39259 -0.86577,0.16956 -1.28458,0.20031 -3.12,0.22904 -1.166,0.0183 -2.894,0.009 -3.84,-0.0205 z"
       id="path12712" />
    <path
       style="fill:#ffffff;stroke-width:0.08"
       d="m 343.04,228.565 c -0.88601,-0.0429 -1.50033,-0.12082 -2.15191,-0.27281 -7.4018,-1.72659 -11.74515,-7.06034 -12.48523,-15.33219 -0.0523,-0.58465 -0.0824,-5.68052 -0.0826,-13.98 v -13.06 h 3.8368 3.83679 l 0.027,12.82 c 0.0296,14.053 0.004,13.28477 0.50571,15.29119 0.90121,3.60527 3.07438,6.04972 6.29303,7.07863 3.42896,1.09613 7.46436,0.52513 10.03741,-1.42027 2.13357,-1.61313 3.4263,-4.26667 3.77948,-7.75803 0.0546,-0.53921 0.0838,-5.2248 0.0838,-13.42 V 185.92 h 3.88 3.88 v 12.86 c 0,12.86977 -0.0148,13.65296 -0.28705,15.5 -1.14025,7.73514 -5.6715,12.64758 -13.02707,14.12297 -0.68824,0.13804 -1.20141,0.16353 -3.84,0.19073 -1.67509,0.0173 -3.60361,0.004 -4.28561,-0.0287 z"
       id="path12710" />
    <path
       style="fill:#ffffff;stroke-width:0.08"
       d="m 298.6,228.64248 c -0.308,-0.0344 -0.92842,-0.0671 -1.37873,-0.0725 -1.00341,-0.0122 -2.30327,-0.27405 -3.88577,-0.78283 -7.89724,-2.539 -13.38132,-9.16503 -14.49746,-17.51625 -0.17705,-1.32472 -0.23632,-3.6823 -0.12694,-5.04931 0.47989,-5.99778 3.14487,-11.25166 7.6089,-15.0006 1.5937,-1.3384 3.86663,-2.67877 5.87261,-3.46312 4.44449,-1.73782 9.91024,-2.03757 14.697,-0.80599 2.90302,0.74691 5.74428,2.15194 8.03039,3.97109 4.13466,3.29013 6.86102,8.15088 7.69381,13.71707 0.20665,1.38128 0.20783,5.36176 0.002,6.68 -0.53359,3.41679 -1.69874,6.49126 -3.44109,9.08 -2.9563,4.3924 -7.26696,7.41092 -12.53468,8.77735 -1.04442,0.27092 -1.43558,0.33271 -2.48,0.39178 -1.84175,0.10415 -4.92114,0.14477 -5.56,0.0734 z m 3.23609,-6.96493 c 5.70043,-0.50453 10.23571,-4.1294 12.04469,-9.62687 1.28787,-3.91378 1.02368,-8.0107 -0.75449,-11.70052 -1.95195,-4.05041 -5.40784,-6.76716 -9.80847,-7.71064 -1.1454,-0.24558 -3.28311,-0.30534 -4.50212,-0.12587 -2.94415,0.43345 -5.38314,1.59412 -7.46435,3.55213 -2.46969,2.32352 -4.03268,5.52142 -4.47657,9.15922 -0.12043,0.9869 -0.0554,3.44554 0.11532,4.35989 1.26024,6.74971 6.17497,11.46724 12.59136,12.08611 1.00038,0.0965 1.23088,0.0972 2.25463,0.007 z"
       id="path12708" />
    <path
       style="fill:#ffffff;stroke-width:0.08"
       d="m 219.6,228.64242 c -0.286,-0.035 -0.87566,-0.0679 -1.31037,-0.0731 -0.97161,-0.0115 -2.19713,-0.27048 -3.81282,-0.80576 -6.89889,-2.2856 -11.96737,-7.88124 -13.71771,-15.14443 -0.3752,-1.55692 -0.5292,-2.84853 -0.57634,-4.83378 -0.0882,-3.71315 0.42674,-6.63726 1.7068,-9.69256 0.72427,-1.72874 1.90104,-3.69364 3.11082,-5.19432 2.91009,-3.6098 7.32968,-6.26174 12.02351,-7.21461 2.70427,-0.54898 6.18351,-0.62397 9.13611,-0.19691 4.39552,0.63575 8.21734,2.47039 11.64381,5.58954 0.58355,0.53122 0.67553,0.65034 0.67133,0.86951 -0.004,0.21551 -0.35872,0.65985 -2.34137,2.93397 -1.53247,1.75774 -2.39678,2.68864 -2.51165,2.7051 -0.12497,0.0179 -0.38447,-0.15964 -0.90604,-0.61996 -2.63657,-2.32689 -5.2432,-3.71276 -8.15608,-4.33632 -0.7211,-0.15436 -1.08914,-0.18045 -2.6,-0.18432 -1.55719,-0.004 -1.86094,0.0172 -2.63594,0.18375 -2.56479,0.55118 -4.71622,1.68304 -6.55307,3.44753 -3.62326,3.48052 -5.21664,8.86896 -4.16474,14.08422 1.16746,5.78829 5.23237,10.10749 10.60681,11.27033 1.2489,0.27022 2.52701,0.35608 3.759,0.25252 3.71341,-0.31217 6.51341,-1.64279 10.01778,-4.76068 0.5217,-0.46416 0.73159,-0.60217 0.91582,-0.60217 0.20795,0 0.53885,0.30751 2.54667,2.36664 1.73288,1.77716 2.31366,2.42139 2.33173,2.58647 0.0207,0.18881 -0.11683,0.35603 -0.97397,1.18455 -3.16307,3.05746 -6.47751,4.93938 -10.27616,5.83474 -0.57957,0.13661 -1.26518,0.22442 -2.13393,0.2733 -1.8849,0.10608 -5.2024,0.14996 -5.8,0.0767 z"
       id="path12706" />
    <path
       style="fill:#ffffff;stroke-width:0.08"
       d="m 99.88,228.64248 c -0.308,-0.0344 -0.929608,-0.0671 -1.38136,-0.0725 -1.765408,-0.0214 -4.381216,-0.78742 -6.86104,-2.00931 -5.783008,-2.84947 -9.833952,-8.11736 -11.193384,-14.55597 -0.6237,-2.95399 -0.636447,-6.71792 -0.03266,-9.64466 0.865656,-4.19614 2.827392,-7.84729 5.82528,-10.84189 2.088768,-2.08647 4.313544,-3.56892 7.003168,-4.66645 4.400576,-1.79572 10.022136,-2.14798 14.845546,-0.93026 1.98116,0.50017 4.44184,1.53543 6.07445,2.55566 1.75047,1.09389 3.66826,2.75862 4.97984,4.32274 2.72172,3.24577 4.45456,7.46938 4.86481,11.85746 0.12221,1.3072 0.0553,4.60146 -0.11626,5.72702 -0.73515,4.82213 -2.77238,8.91445 -6.08304,12.21942 -1.7021,1.69918 -3.39481,2.91148 -5.52535,3.95723 -2.54819,1.25073 -4.72778,1.88733 -6.88,2.00944 -1.80855,0.10261 -4.88741,0.14283 -5.519996,0.0721 z m 4.48,-7.12386 c 4.44329,-0.7604 8.0365,-3.46411 10.04535,-7.55862 1.80039,-3.66958 2.08125,-7.86836 0.78666,-11.76 -1.39197,-4.18434 -4.34038,-7.33662 -8.33992,-8.91658 -2.77535,-1.09636 -6.30855,-1.17388 -9.209658,-0.20207 -5.27468,1.76694 -8.837592,6.40883 -9.491832,12.3663 -0.113256,1.03131 -0.0475,3.04096 0.133256,4.07235 0.501568,2.862 1.581016,5.21177 3.38512,7.36881 2.619608,3.13209 6.796584,4.98752 10.851024,4.82005 0.528,-0.0218 1.356,-0.10741 1.84,-0.19024 z"
       id="path12702" />
  </g>
</svg>
